<svg width="640" height="400" viewBox="0 0 640 400" xmlns="http://www.w3.org/2000/svg">
  <defs>
    <linearGradient id="night" x1="0%" y1="0%" x2="0%" y2="100%">
      <stop offset="0%" stop-color="#041129"/>
      <stop offset="100%" stop-color="#02060f"/>
    </linearGradient>
    <linearGradient id="window" x1="0%" y1="0%" x2="100%" y2="0%">
      <stop offset="0%" stop-color="#00f6ff"/>
      <stop offset="100%" stop-color="#ff8b2a"/>
    </linearGradient>
  </defs>
  <rect width="640" height="400" fill="url(#night)"/>
  <g stroke="rgba(0,246,255,0.4)" stroke-width="1" opacity="0.35">
    <line x1="0" y1="360" x2="640" y2="360"/>
    <line x1="0" y1="320" x2="640" y2="320"/>
    <line x1="0" y1="280" x2="640" y2="280"/>
    <line x1="0" y1="240" x2="640" y2="240"/>
  </g>
  <g fill="none" stroke="rgba(255,139,42,0.25)" stroke-width="1">
    <line x1="40" y1="400" x2="40" y2="0"/>
    <line x1="160" y1="400" x2="160" y2="0"/>
    <line x1="280" y1="400" x2="280" y2="0"/>
    <line x1="400" y1="400" x2="400" y2="0"/>
    <line x1="520" y1="400" x2="520" y2="0"/>
  </g>
  <g>
    <rect x="60" y="220" width="80" height="140" fill="rgba(0,246,255,0.16)" stroke="#00f6ff" stroke-width="2"/>
    <rect x="150" y="160" width="90" height="200" fill="rgba(255,139,42,0.15)" stroke="#ff8b2a" stroke-width="2"/>
    <rect x="260" y="110" width="110" height="250" fill="rgba(0,246,255,0.18)" stroke="#00f6ff" stroke-width="2"/>
    <rect x="390" y="200" width="70" height="160" fill="rgba(255,139,42,0.12)" stroke="#ff8b2a" stroke-width="2"/>
    <rect x="470" y="140" width="100" height="220" fill="rgba(0,246,255,0.14)" stroke="#00f6ff" stroke-width="2"/>
  </g>
  <g fill="url(#window)" opacity="0.9">
    <rect x="70" y="235" width="12" height="8"/>
    <rect x="90" y="255" width="12" height="8"/>
    <rect x="120" y="270" width="12" height="8"/>
    <rect x="170" y="180" width="14" height="10"/>
    <rect x="210" y="210" width="14" height="10"/>
    <rect x="230" y="250" width="14" height="10"/>
    <rect x="280" y="140" width="16" height="12"/>
    <rect x="330" y="190" width="16" height="12"/>
    <rect x="310" y="230" width="16" height="12"/>
    <rect x="410" y="220" width="12" height="8"/>
    <rect x="430" y="260" width="12" height="8"/>
    <rect x="500" y="170" width="14" height="10"/>
    <rect x="530" y="220" width="14" height="10"/>
    <rect x="550" y="260" width="14" height="10"/>
  </g>
  <text x="40" y="60" fill="#ff8b2a" font-family="IBM Plex Mono, monospace" font-size="16" letter-spacing="8">NEO CITY // VECTOR MOCK</text>
  <text x="40" y="88" fill="#00f6ff" font-family="IBM Plex Mono, monospace" font-size="12" letter-spacing="4">PLACEHOLDER SKYLINE</text>
</svg>

