<?xml version="1.0" encoding="UTF-8"?>
<svg width="640" height="360" viewBox="0 0 640 360" xmlns="http://www.w3.org/2000/svg">
  <rect width="640" height="360" fill="#0f172a"/>
  <rect x="24" y="24" width="592" height="312" rx="16" fill="#111827" stroke="#1f2937" stroke-width="2"/>
  <text x="40" y="56" fill="#38bdf8" font-family="Helvetica, Arial, sans-serif" font-size="20">PrecisionCare Command Center</text>

  <rect x="40" y="84" width="220" height="110" rx="12" fill="#0b253a" stroke="#1d4ed8" stroke-width="2"/>
  <text x="56" y="110" fill="#f8fafc" font-family="Helvetica, Arial, sans-serif" font-size="16">Throughput Monitor</text>
  <text x="56" y="134" fill="#94a3b8" font-family="Helvetica, Arial, sans-serif" font-size="14">Live cases/hour</text>
  <text x="56" y="158" fill="#38bdf8" font-family="Helvetica, Arial, sans-serif" font-size="32">142</text>
  <text x="56" y="186" fill="#22d3ee" font-family="Helvetica, Arial, sans-serif" font-size="12">+18% vs baseline</text>

  <rect x="280" y="84" width="320" height="110" rx="12" fill="#0b253a" stroke="#a855f7" stroke-width="2"/>
  <text x="296" y="110" fill="#f8fafc" font-family="Helvetica, Arial, sans-serif" font-size="16">Care Velocity</text>
  <polyline points="296,172 328,148 360,156 392,134 424,150 456,120 488,138 520,118 552,126 584,104"
            fill="none" stroke="#a855f7" stroke-width="3"/>
  <polyline points="296,184 328,162 360,170 392,152 424,166 456,140 488,156 520,138 552,146 584,126"
            fill="none" stroke="#22d3ee" stroke-width="2" stroke-dasharray="6 6"/>
  <text x="296" y="196" fill="#94a3b8" font-family="Helvetica, Arial, sans-serif" font-size="12">Phase-to-discharge minutes (median)</text>

  <rect x="40" y="212" width="560" height="108" rx="12" fill="#0b253a" stroke="#38bdf8" stroke-width="2"/>
  <text x="56" y="238" fill="#f8fafc" font-family="Helvetica, Arial, sans-serif" font-size="16">Surge Readiness Matrix</text>

  <rect x="56" y="250" width="158" height="56" rx="10" fill="#0f3d5c" stroke="#38bdf8" stroke-width="1.5"/>
  <text x="72" y="274" fill="#f8fafc" font-family="Helvetica, Arial, sans-serif" font-size="13">Beds Available</text>
  <text x="72" y="294" fill="#22d3ee" font-family="Helvetica, Arial, sans-serif" font-size="18">58</text>

  <rect x="232" y="250" width="158" height="56" rx="10" fill="#241a45" stroke="#a855f7" stroke-width="1.5"/>
  <text x="248" y="274" fill="#f8fafc" font-family="Helvetica, Arial, sans-serif" font-size="13">Staffing Coverage</text>
  <text x="248" y="294" fill="#c084fc" font-family="Helvetica, Arial, sans-serif" font-size="18">96%</text>

  <rect x="408" y="250" width="158" height="56" rx="10" fill="#162447" stroke="#22d3ee" stroke-width="1.5"/>
  <text x="424" y="274" fill="#f8fafc" font-family="Helvetica, Arial, sans-serif" font-size="13">Supply Chain Index</text>
  <text x="424" y="294" fill="#38bdf8" font-family="Helvetica, Arial, sans-serif" font-size="18">0.92</text>

  <text x="40" y="330" fill="#64748b" font-family="Helvetica, Arial, sans-serif" font-size="12">Generated illustration – replace with production dashboard capture for client deliverables.</text>
</svg>

